<?xml version="1.0" encoding="iso-8859-1"?>
<!-- Uploaded to: SVG Repo, www.svgrepo.com, Generator: SVG Repo Mixer Tools -->
<svg fill="#eae4ca" height="800px" width="800px" version="1.1" id="Layer_1" xmlns="http://www.w3.org/2000/svg" xmlns:xlink="http://www.w3.org/1999/xlink" 
	 viewBox="0 0 512 512" xml:space="preserve">
<g>
	<g>
		<g>
			<path d="M42.673,136.533c42.342,0,76.8,34.458,76.8,76.8c0,4.71,3.823,8.533,8.533,8.533s8.533-3.823,8.533-8.533
				c0-51.755-42.112-93.867-93.867-93.867c-4.71,0-8.533,3.823-8.533,8.533S37.963,136.533,42.673,136.533z"/>
			<path d="M42.673,68.267c79.992,0,145.067,65.075,145.067,145.067c0,37.641,30.626,68.267,68.267,68.267
				c22.084,0,42.906-10.761,55.689-28.792c2.731-3.84,1.826-9.165-2.014-11.895c-3.849-2.731-9.173-1.826-11.895,2.022
				c-9.6,13.525-25.216,21.598-41.779,21.598c-28.237,0-51.2-22.963-51.2-51.2c0-89.404-72.73-162.133-162.133-162.133
				c-4.71,0-8.533,3.823-8.533,8.533S37.963,68.267,42.673,68.267z"/>
			<path d="M42.673,102.4c61.175,0,110.933,49.758,110.933,110.933c0,4.71,3.823,8.533,8.533,8.533s8.533-3.823,8.533-8.533
				c0-70.579-57.421-128-128-128c-4.71,0-8.533,3.823-8.533,8.533C34.14,98.577,37.963,102.4,42.673,102.4z"/>
			<path d="M477.216,466.074c-0.435-1.041-1.058-1.988-1.852-2.782l-34.125-34.125c-3.336-3.336-8.73-3.336-12.066,0
				c-3.337,3.337-3.337,8.73,0,12.066L448.74,460.8H264.54v-68.702c90.129-4.489,162.133-79.01,162.133-170.231v-35.593
				c9.933-3.524,17.067-13.013,17.067-24.141c0-8.124-7.202-21.274-13.184-30.797l25.532-12.774
				c2.893-1.442,4.719-4.395,4.719-7.629s-1.826-6.187-4.719-7.637l-29.653-14.822c-0.529-5.88-1.929-11.503-4.036-16.768
				l22.707-13.107c4.087-2.364,5.478-7.586,3.123-11.665c-2.355-4.079-7.586-5.487-11.656-3.123l-22.75,13.141
				c-2.927-3.695-6.255-7.049-9.958-9.967l13.133-22.75c2.355-4.087,0.956-9.301-3.123-11.657
				c-4.096-2.364-9.301-0.964-11.657,3.123L389.109,38.4c-4.318-1.724-8.892-2.91-13.636-3.593V8.533
				c0-4.71-3.823-8.533-8.533-8.533c-4.71,0-8.533,3.823-8.533,8.533v26.283c-4.736,0.683-9.301,1.894-13.619,3.618l-13.124-22.733
				c-2.364-4.087-7.56-5.487-11.656-3.123c-4.079,2.355-5.478,7.569-3.123,11.657l13.141,22.767
				c-3.703,2.918-7.04,6.255-9.958,9.958l-22.758-13.141c-4.079-2.372-9.31-0.964-11.657,3.123
				c-2.355,4.079-0.964,9.301,3.123,11.656l22.733,13.124c-2.748,6.861-4.301,14.319-4.301,22.144V204.8h-76.8
				c-4.71,0-8.533,3.823-8.533,8.533c0,4.71,3.823,8.533,8.533,8.533h85.333c4.71,0,8.533-3.823,8.533-8.533V93.867
				c0-23.526,19.14-42.667,42.667-42.667c23.526,0,42.667,19.14,42.667,42.667c0,3.234,1.826,6.187,4.719,7.637l18.867,9.429
				l-18.867,9.429c-2.21,1.109-3.831,3.123-4.454,5.513c-0.606,2.398-0.154,4.941,1.246,6.972
				c8.183,11.853,15.454,25.54,15.556,29.286c0,4.702-3.831,8.533-8.533,8.533c-4.71,0-8.533,3.823-8.533,8.533v42.667
				c0,84.693-68.907,153.6-153.6,153.6s-153.6-68.907-153.6-153.6v-8.533c0-32.939-26.795-59.733-59.733-59.733
				c-4.71,0-8.533,3.823-8.533,8.533c0,4.71,3.823,8.533,8.533,8.533c23.526,0,42.667,19.14,42.667,42.667v8.533
				c0,91.221,72.004,165.743,162.133,170.231V460.8H80.339l-31.633-31.633c-3.337-3.336-8.73-3.336-12.066,0
				c-3.337,3.337-3.337,8.73,0,12.066l28.1,28.1l-28.1,28.1c-3.337,3.337-3.337,8.73,0,12.066c1.664,1.664,3.849,2.5,6.033,2.5
				c2.185,0,4.369-0.836,6.033-2.5l31.633-31.633h167.134v25.6c0,4.71,3.823,8.533,8.533,8.533c4.71,0,8.533-3.823,8.533-8.533
				v-25.6H448.74l-19.567,19.567c-3.337,3.337-3.337,8.73,0,12.066c1.664,1.664,3.849,2.5,6.033,2.5s4.369-0.836,6.033-2.5
				l34.125-34.133c0.794-0.785,1.417-1.732,1.852-2.773C478.078,470.511,478.078,468.156,477.216,466.074z"/>
			<path d="M392.796,93.867c0-4.71-3.814-8.533-8.533-8.533h-0.085c-4.71,0-8.491,3.823-8.491,8.533c0,4.71,3.866,8.533,8.576,8.533
				C388.981,102.4,392.796,98.577,392.796,93.867z"/>
		</g>
	</g>
</g>
</svg>